<svg xmlns="http://www.w3.org/2000/svg" width="24" height="24" viewBox="0 0 24 24" fill="none">
  <path d="M10 5.17199C10 3.78199 8.423 2.67899 6.5 2.99999C3.677 3.46999 2.387 9.00599 2.5 9.99999C2.58 10.703 4.225 11.722 6.156 11C7.417 10.528 8.116 9.54999 8.5 8.49999" stroke="url(#paint0_linear_14_3)" stroke-width="2" stroke-linecap="round" stroke-linejoin="round"/>
  <path d="M14.267 5.17199C14.267 3.78199 15.844 2.67899 17.767 2.99999C20.59 3.46999 21.88 9.00599 21.767 9.99999C21.687 10.703 20.042 11.722 18.111 11C16.85 10.528 16.256 9.54999 15.872 8.49999" stroke="url(#paint1_linear_14_3)" stroke-width="2" stroke-linecap="round" stroke-linejoin="round"/>
  <path d="M8 14V14.5" stroke="url(#paint2_linear_14_3)" stroke-width="2" stroke-linecap="round" stroke-linejoin="round"/>
  <path d="M16 14V14.5" stroke="url(#paint3_linear_14_3)" stroke-width="2" stroke-linecap="round" stroke-linejoin="round"/>
  <path d="M11.25 16.25H12.75L12 17L11.25 16.25Z" stroke="url(#paint4_linear_14_3)" stroke-width="2" stroke-linecap="round" stroke-linejoin="round"/>
  <path d="M4.42001 11.247C4.14014 12.3277 3.999 13.4396 4.00001 14.556C4.00001 18.728 7.58201 21 12 21C16.418 21 20 18.728 20 14.556C20 13.495 19.838 12.356 19.507 11.247M10.264 5.165C10.8358 5.05266 11.4173 4.99739 12 5C12.78 5 13.5 5.108 14.161 5.306" stroke="url(#paint5_linear_14_3)" stroke-width="2" stroke-linecap="round" stroke-linejoin="round"/>
  <defs>
    <linearGradient id="paint0_linear_14_3" x1="6.24659" y1="2.94397" x2="6.24659" y2="11.2474" gradientUnits="userSpaceOnUse">
      <stop stop-color="#78A5FC"/>
      <stop offset="1" stop-color="#78A5FC" stop-opacity="0.5"/>
    </linearGradient>
    <linearGradient id="paint1_linear_14_3" x1="18.0204" y1="2.94397" x2="18.0204" y2="11.2474" gradientUnits="userSpaceOnUse">
      <stop stop-color="#78A5FC"/>
      <stop offset="1" stop-color="#78A5FC" stop-opacity="0.5"/>
    </linearGradient>
    <linearGradient id="paint2_linear_14_3" x1="8.5" y1="14" x2="8.5" y2="14.5" gradientUnits="userSpaceOnUse">
      <stop stop-color="#78A5FC"/>
      <stop offset="1" stop-color="#78A5FC" stop-opacity="0.5"/>
    </linearGradient>
    <linearGradient id="paint3_linear_14_3" x1="16.5" y1="14" x2="16.5" y2="14.5" gradientUnits="userSpaceOnUse">
      <stop stop-color="#78A5FC"/>
      <stop offset="1" stop-color="#78A5FC" stop-opacity="0.5"/>
    </linearGradient>
    <linearGradient id="paint4_linear_14_3" x1="12" y1="16.25" x2="12" y2="17" gradientUnits="userSpaceOnUse">
      <stop stop-color="#78A5FC"/>
      <stop offset="1" stop-color="#78A5FC" stop-opacity="0.5"/>
    </linearGradient>
    <linearGradient id="paint5_linear_14_3" x1="12" y1="4.99991" x2="12" y2="21" gradientUnits="userSpaceOnUse">
      <stop stop-color="#78A5FC"/>
      <stop offset="1" stop-color="#78A5FC" stop-opacity="0.5"/>
    </linearGradient>
  </defs>
</svg>